<svg xmlns="http://www.w3.org/2000/svg" viewBox="0 0 64 64"><defs><clipPath id="isa"><path d="M32 4 L57 11 V30 C57 45.5 46.5 55 32 60 C17.5 55 7 45.5 7 30 V11 Z"></path></clipPath></defs><path d="M32 4 L57 11 V30 C57 45.5 46.5 55 32 60 C17.5 55 7 45.5 7 30 V11 Z" fill="#6B7A2E" stroke="rgba(255,255,255,.16)" stroke-width="2"></path><g clip-path="url(#isa)"><path d="M2,22 L42,62 L49,55 L9,15 Z" fill="#FFFFFF"></path><path d="M14,12 L54,52 L57.5,48.5 L17.5,8.5 Z" fill="#FFFFFF"></path></g><path d="M32 4 L57 11 V30 C57 45.5 46.5 55 32 60 C17.5 55 7 45.5 7 30 V11 Z" fill="none" stroke="rgba(255,255,255,.16)" stroke-width="2"></path></svg>